<?xml version="1.0" standalone="no"?><!DOCTYPE svg PUBLIC "-//W3C//DTD SVG 1.1//EN" "http://www.w3.org/Graphics/SVG/1.1/DTD/svg11.dtd"><svg class="icon" width="200px" height="200.00px" viewBox="0 0 1024 1024" version="1.1" xmlns="http://www.w3.org/2000/svg"><path fill="#333333" d="M508.356267 483.208533a8.533333 8.533333 0 0 0 8.452266 0.0256l346.363734-196.078933-346.9184-199.377067a8.5248 8.5248 0 0 0-8.503467 0l-344.183467 197.802667 344.789334 197.627733zM490.666667 527.202133a8.533333 8.533333 0 0 0-4.288-7.402666L140.8 321.736533v398.660267c0 3.054933 1.634133 5.8752 4.279467 7.3984L490.666667 926.408533v-399.2064z m-76.573867 46.0928c0 6.570667-7.112533 10.6752-12.8 7.389867l-145.514667-84.014933a8.533333 8.533333 0 0 1-4.266666-7.389867v-25.774933c0-6.570667 7.112533-10.6752 12.8-7.389867l145.514666 84.014933a8.533333 8.533333 0 0 1 4.266667 7.389867v25.774933zM537.659733 520.465067a8.533333 8.533333 0 0 0-4.3264 7.424v398.519466l345.582934-198.613333a8.533333 8.533333 0 0 0 4.279466-7.3984v-395.605333l-345.536 195.6736z"  /></svg>